<?xml version="1.0" encoding="utf-8"?>
<!-- Generator: Adobe Illustrator 18.1.1, SVG Export Plug-In . SVG Version: 6.00 Build 0)  -->
<svg version="1.1"
	 id="svgcard" sodipodi:docname="hello my name is raster.svg" inkscape:version="0.48.2 r9819" xmlns:inkscape="http://www.inkscape.org/namespaces/inkscape" xmlns:dc="http://purl.org/dc/elements/1.1/" xmlns:cc="http://creativecommons.org/ns#" xmlns:rdf="http://www.w3.org/1999/02/22-rdf-syntax-ns#" xmlns:svg="http://www.w3.org/2000/svg" xmlns:sodipodi="http://sodipodi.sourceforge.net/DTD/sodipodi-0.dtd"
	 xmlns="http://www.w3.org/2000/svg" xmlns:xlink="http://www.w3.org/1999/xlink" x="0px" y="0px" viewBox="462 -159.6 154 110"
	 enable-background="new 462 -159.6 154 110" xml:space="preserve">
<g id="card" transform="translate(-71.060242,-326.03787)" inkscape:groupmode="layer" inkscape:label="Layer 1">
	<path id="rectrouge" fill="#EF3D33" d="M540.8,166.4h138.6c4.2,0,7.7,3.7,7.7,8.3v93.4c0,4.6-3.4,8.3-7.7,8.3H540.8
		c-4.2,0-7.7-3.7-7.7-8.3v-93.4C533.1,170,536.5,166.4,540.8,166.4z"/>
	<g id="hello_1_">
		<path id="h" inkscape:connector-curvature="0" fill="#FFFFFF" d="M593.8,190.4v-19h-3.5v7.7h-6.8v-7.7H580v19h3.5v-8h6.8v8H593.8"
			/>
		<path id="e_1_" inkscape:connector-curvature="0" fill="#FFFFFF" d="M611.3,183.1c0-4.1-3.2-7.4-7.4-7.4c-4.3,0-7.5,3.4-7.5,7.6
			c0,4.2,3.3,7.5,7.5,7.5c3,0,6-2.1,6.9-5h-3.6c-0.7,1.3-1.9,1.8-3.3,1.8c-1.4,0-2.7-0.7-3.5-1.9c-0.2-0.3-0.4-0.6-0.5-1H611
			C611.2,184.2,611.3,183.6,611.3,183.1 M607.8,182.1h-7.9c0.5-2,2-3.3,4-3.3C606,178.8,607.4,180,607.8,182.1"/>
		<path id="l_1_" inkscape:connector-curvature="0" fill="#FFFFFF" d="M616.8,190.4v-19h-3.4v19H616.8"/>
		<path id="l" inkscape:connector-curvature="0" fill="#FFFFFF" d="M623,190.4v-19h-3.4v19H623"/>
		<path id="o" inkscape:connector-curvature="0" fill="#FFFFFF" d="M640.1,183.2c0-4.2-3.3-7.6-7.5-7.6s-7.6,3.4-7.6,7.6
			c0,4.2,3.4,7.6,7.6,7.6C636.9,190.9,640.1,187.5,640.1,183.2 M636.7,183.3c0,2.3-1.7,4.4-4.1,4.4c-2.5,0-4.2-2.1-4.2-4.4
			c0-2.3,1.8-4.5,4.2-4.5C635,178.8,636.7,181,636.7,183.3"/>
	</g>
	<g id="mynameis">
		<path id="m_1_" inkscape:connector-curvature="0" fill="#FFFFFF" d="M587.8,201.7v-3.8c0-1.6-0.9-2.6-2.5-2.6
			c-0.9,0-1.6,0.3-2.1,1.1c-0.3-0.7-1.2-1.1-2-1.1s-1.3,0.2-1.8,0.8l0,0v-0.7h-1.1v6.3h1.2v-3.5c0-1.1,0.3-1.9,1.5-1.9
			c0.5,0,0.9,0.2,1.2,0.6c0.3,0.4,0.3,0.8,0.3,1.3v3.5h1.2v-3.5c0-1,0.3-1.9,1.5-1.9s1.5,0.9,1.5,1.9v3.5L587.8,201.7"/>
		<path id="y" inkscape:connector-curvature="0" fill="#FFFFFF" d="M594.6,195.5h-1.3l-1.9,4.8l-1.8-4.8h-1.3l2.5,6.1l-0.9,2.2h1.2
			L594.6,195.5"/>
		<path id="n" inkscape:connector-curvature="0" fill="#FFFFFF" d="M604.4,201.7V198c0-0.6-0.1-1.1-0.4-1.6
			c-0.5-0.8-1.3-1.1-2.2-1.1c-0.7,0-1.4,0.2-1.8,0.8l0,0v-0.7h-1.1v6.3h1.2v-3.4c0-1.1,0.5-2,1.6-2c1.2,0,1.6,0.9,1.6,2v3.4H604.4"
			/>
		<path id="a" inkscape:connector-curvature="0" fill="#FFFFFF" d="M612.2,201.7v-6.3H611v0.9l0,0c-0.5-0.7-1.3-1.1-2.1-1.1
			c-1.9,0-3.3,1.4-3.3,3.3c0,1.9,1.4,3.3,3.3,3.3c0.8,0,1.7-0.4,2.1-1.1l0,0v1L612.2,201.7 M611,198.6c0,1.2-0.9,2.2-2.2,2.2
			c-1.2,0-2.1-1-2.1-2.2s0.9-2.2,2.2-2.2C610.2,196.4,611,197.3,611,198.6"/>
		<path id="m" inkscape:connector-curvature="0" fill="#FFFFFF" d="M623.2,201.7v-3.8c0-1.6-0.9-2.6-2.5-2.6c-0.9,0-1.6,0.3-2.1,1.1
			c-0.3-0.7-1.2-1.1-2-1.1s-1.3,0.2-1.8,0.8l0,0v-0.7h-1.1v6.3h1.2v-3.5c0-1.1,0.3-1.9,1.5-1.9c0.5,0,0.9,0.2,1.2,0.6
			c0.3,0.4,0.3,0.8,0.3,1.3v3.5h1.2v-3.5c0-1,0.3-1.9,1.5-1.9s1.5,0.9,1.5,1.9v3.5L623.2,201.7"/>
		<path id="e" inkscape:connector-curvature="0" fill="#FFFFFF" d="M630.7,198.5c0-1.8-1.4-3.2-3.2-3.2c-1.8,0-3.2,1.5-3.2,3.3
			c0,1.7,1.4,3.3,3.2,3.3c1.4,0,2.5-0.8,3-2.1h-1.2c-0.3,0.7-1.1,1.1-1.8,1.1c-1,0-1.8-0.7-2.1-1.7h5.2
			C630.7,198.9,630.7,198.7,630.7,198.5 M629.6,198.2h-4.1c0.1-1,1-1.8,2-1.8C628.6,196.3,629.5,197.1,629.6,198.2"/>
		<path id="i" inkscape:connector-curvature="0" fill="#FFFFFF" d="M636.4,194.7v-1.4h-1.2v1.4H636.4 M636.4,201.7v-6.3h-1.2v6.3
			H636.4"/>
		<path id="s" inkscape:connector-curvature="0" fill="#FFFFFF" d="M641.7,199.9c0-1.2-0.8-1.7-1.9-2c-0.4-0.1-1-0.3-1-0.8
			c0-0.4,0.3-0.7,0.7-0.7c0.5,0,0.7,0.3,0.8,0.7h1.2c0-1.1-0.8-1.8-1.9-1.8c-1,0-2,0.7-2,1.8c0,2.2,2.8,1.5,2.8,2.8
			c0,0.5-0.4,0.8-0.9,0.8c-0.7,0-1-0.5-1.1-1.1h-1.2c0,1,0.5,1.7,1.4,2.1c0.3,0.1,0.5,0.2,0.8,0.2
			C640.8,201.8,641.7,201.1,641.7,199.9"/>
	</g>
	<rect id="rectblanc" x="533.1" y="207.8" fill="#FFFFFF" width="154" height="59.8"/>
</g>
<g id="ierrick_1_">
	<path id="pointi2" d="M525.7-93.2c0.4,0.3,0.8,0.4,1.3,0.4c0.6,0,1.2-0.3,1.7-0.8s0.8-1.2,0.9-1.9c0-0.5-0.1-1-0.5-1.3
		c-0.4-0.3-0.8-0.4-1.4-0.3c-0.7,0.1-1.3,0.5-1.8,1.1c-0.4,0.6-0.7,1.2-0.7,1.7C525.2-93.9,525.3-93.4,525.7-93.2z"/>
	<path id="pointi1" d="M571.7-95.2c0.4,0.3,0.8,0.4,1.3,0.4c0.6,0,1.2-0.3,1.7-0.8s0.8-1.2,0.9-1.9c0-0.5-0.1-1-0.5-1.3
		c-0.4-0.3-0.8-0.4-1.4-0.3c-0.7,0.1-1.3,0.5-1.8,1.1c-0.4,0.6-0.7,1.2-0.7,1.7C571.1-95.9,571.3-95.4,571.7-95.2z"/>
	<path id="ierrick" d="M605.3-90.2c0-0.4-0.2-0.7-0.4-0.8c-0.2-0.2-0.5-0.2-0.8-0.1c-0.4,0.1-0.7,0.4-1,0.9
		c-0.4,0.6-0.8,1.1-1.2,1.7c-0.5,0.6-0.9,1.1-1.4,1.5c-0.4,0.4-0.9,0.7-1.3,0.9s-0.7,0.2-1,0c-0.2-0.2-0.3-0.4-0.2-0.6
		c0.1-0.3,0.3-0.6,0.4-1c0.2-0.4,0.3-0.7,0.4-1.1s0.1-0.7-0.1-1.1c-0.2-0.4-0.6-0.6-1-0.7c-0.5-0.1-1-0.1-1.6,0
		c0.5-0.4,1.1-0.7,1.6-1.1s1-0.7,1.5-0.9s0.9-0.5,1.2-0.6c0.4-0.1,0.6-0.2,0.8-0.1c0.4,0.2,0.7,0.1,1-0.1c0.3-0.2,0.5-0.5,0.6-0.9
		s0.2-0.8,0.2-1.2s-0.2-0.8-0.5-1c-0.4-0.4-1-0.5-1.6-0.4c-0.7,0.1-1.4,0.4-2.1,0.9c-0.8,0.4-1.5,1-2.3,1.6s-1.5,1.3-2.2,1.9l4-9.3
		c0.2-0.5,0.2-0.8-0.1-1c-0.3-0.2-0.7-0.3-1.3-0.3s-1.1,0.2-1.5,0.4c-0.4,0.2-0.7,0.6-1,1.2c-0.1,0.2-0.2,0.5-0.4,1
		c-0.2,0.5-0.5,1-0.7,1.7c-0.3,0.6-0.6,1.4-0.9,2.1c-0.3,0.8-0.7,1.5-1,2.3c-0.7,1.5-1.4,3.2-2.2,5c-0.7,0.9-1.4,1.7-2.2,2.4
		c-0.8,0.7-1.6,1.3-2.4,1.8s-1.6,0.7-2.3,0.9c-0.7,0.1-1.4,0-1.9-0.3c-0.6-0.4-1-0.9-1.1-1.7c-0.1-0.8-0.1-1.6,0.2-2.4
		c0.2-0.8,0.6-1.5,1.2-2.2c0.5-0.6,1.2-0.9,1.9-1c0.3,0,0.5,0,0.6,0.1c0.2,0.1,0.2,0.2,0.3,0.3c0,0.1,0,0.3-0.1,0.4
		c-0.1,0.1-0.2,0.2-0.3,0.3c-0.1,0.1-0.2,0.2-0.1,0.4c0.1,0.2,0.2,0.5,0.4,0.7c0.2,0.2,0.5,0.4,0.9,0.4c0.4,0.1,0.8,0,1.2-0.3
		c0.5-0.3,0.8-0.7,0.9-1.4c0.1-0.6,0.1-1.3-0.2-1.8c-0.3-0.6-0.8-1.1-1.6-1.4c-0.8-0.4-1.9-0.4-3.3-0.2c-0.9,0.2-1.7,0.5-2.4,1.1
		c-0.7,0.6-1.3,1.3-1.8,2.1c-0.4,0.7-0.7,1.5-0.9,2.3l0,0c-0.4,0.5-0.8,1-1.2,1.5c-0.5,0.5-0.9,1-1.5,1.4c-0.5,0.4-1,0.8-1.5,1.1
		s-0.9,0.4-1.4,0.4c-0.3,0-0.5-0.1-0.7-0.3c-0.2-0.2-0.2-0.4-0.2-0.6c0-0.3,0.1-0.5,0.2-0.8c0.1-0.3,0.2-0.5,0.3-0.8
		c0.1-0.2,0.3-0.6,0.5-1.1c0.3-0.5,0.5-1,0.8-1.6c0.3-0.5,0.5-1.1,0.8-1.6c0.2-0.5,0.4-0.9,0.5-1.2c0.2-0.5,0.2-0.8-0.1-0.9
		c-0.3-0.2-0.7-0.2-1.1-0.2c-0.7,0-1.2,0.1-1.5,0.3c-0.3,0.2-0.6,0.4-0.8,0.8c-0.2,0.3-0.4,0.7-0.6,1.2s-0.4,0.9-0.7,1.4
		c-0.2,0.5-0.5,1-0.7,1.5c0,0,0,0,0,0.1c-0.7,1-1.5,1.9-2.3,2.7c-0.8,0.8-1.6,1.3-2.3,1.5c-0.8,0.2-1.3,0-1.7-0.5
		c-0.3-0.5-0.3-1.1,0-1.8c0.2-0.4,0.4-0.8,0.7-1.3c0.3-0.5,0.6-0.9,1-1.4s0.7-0.9,1.1-1.3c0.4-0.4,0.7-0.7,1-1
		c0.2-0.2,0.3-0.4,0.3-0.7c0.1-0.3,0-0.6-0.1-0.8c-0.1-0.3-0.3-0.4-0.5-0.6s-0.5-0.1-0.9,0.1c-0.9,0.5-1.8,0.7-2.6,0.7
		s-1.4,0-1.9-0.1c0.1-0.4,0.1-0.8,0-1.2c-0.2-0.3-0.4-0.6-0.7-0.7c-0.3-0.1-0.7-0.1-1.1,0c-0.4,0.2-0.8,0.5-1.2,1
		c-0.4,0.5-0.5,1.1-0.4,1.6c0.1,0.5,0.3,1,0.7,1.4c-0.4,0.9-0.8,1.7-1.3,2.5s-1,1.5-1.5,2.2c-0.5,0.6-1.1,1.2-1.6,1.6
		s-1,0.7-1.4,0.8c-0.8,0.2-1.3,0.1-1.7-0.4c-0.3-0.5-0.3-1.1,0-1.8c0.2-0.4,0.4-0.8,0.7-1.3c0.3-0.5,0.6-0.9,1-1.4
		c0.4-0.5,0.7-0.9,1.1-1.3s0.7-0.7,1-1c0.2-0.2,0.3-0.4,0.3-0.7c0.1-0.3,0-0.6-0.1-0.8c-0.1-0.3-0.3-0.4-0.5-0.6
		c-0.2-0.2-0.5-0.1-0.9,0.1c-0.5,0.3-0.9,0.5-1.4,0.7s-0.9,0.4-1.3,0.6c-0.4,0.2-0.8,0.3-1.2,0.4S547-91,546.7-91
		c0.1-0.4,0.1-0.8,0-1.2c-0.2-0.3-0.4-0.6-0.7-0.7s-0.7-0.1-1.1,0c-0.4,0.2-0.8,0.5-1.2,1c-0.3,0.5-0.5,1-0.4,1.5s0.2,0.9,0.5,1.3
		c-0.1,0.3-0.1,0.6-0.2,0.9s-0.3,0.6-0.5,1l0,0c-2,2.4-3.7,3.9-5.3,4.6s-2.9,0.8-4,0.2c-0.4-0.2-0.7-0.5-0.9-0.9
		c-0.2-0.4-0.3-0.8-0.4-1.2c0.7,0.3,1.4,0.4,2.2,0.3c0.8-0.1,1.6-0.3,2.3-0.6c0.7-0.3,1.4-0.8,2-1.4s0.9-1.3,1.2-2.1
		c0.2-0.6,0.1-1.3-0.1-1.8c-0.2-0.5-0.5-1-1-1.4s-1.1-0.6-1.7-0.7c-0.7-0.1-1.4-0.1-2.3,0.1c-1,0.2-1.8,0.6-2.5,1.2
		c-0.7,0.6-1.3,1.3-1.8,2.1c-0.4,0.7-0.7,1.4-0.9,2.2c-0.4,0.5-0.7,0.9-1.2,1.4s-0.9,1-1.5,1.4s-1,0.8-1.5,1.1
		c-0.5,0.3-0.9,0.4-1.4,0.4c-0.3,0-0.5-0.1-0.7-0.3c-0.1-0.2-0.2-0.4-0.2-0.6s0.1-0.5,0.2-0.8c0.1-0.3,0.2-0.5,0.3-0.8
		c0.1-0.2,0.3-0.6,0.5-1.1c0.3-0.5,0.5-1,0.8-1.6c0.3-0.5,0.5-1.1,0.8-1.6c0.2-0.5,0.4-0.9,0.5-1.2c0.2-0.5,0.2-0.8-0.1-0.9
		c-0.3-0.2-0.7-0.2-1.1-0.2c-0.7,0-1.2,0.1-1.5,0.3c-0.3,0.2-0.6,0.4-0.8,0.8c-0.2,0.3-0.4,0.7-0.6,1.2s-0.4,0.9-0.7,1.4
		c-0.2,0.5-0.5,1-0.7,1.5c-0.3,0.5-0.5,1-0.7,1.4c-0.4,0.8-0.7,1.6-0.7,2.3c-0.1,0.7,0.1,1.3,0.4,1.8c0.3,0.5,0.7,0.9,1.3,1.2
		c0.6,0.3,1.3,0.4,2.1,0.4c0.9-0.1,1.8-0.3,2.6-0.6c0.8-0.4,1.6-0.9,2.3-1.4c0.6-0.5,1.1-0.9,1.5-1.5c0.2,0.5,0.3,1,0.6,1.4
		c0.4,0.7,1,1.3,1.8,1.7c1.1,0.6,2.2,0.8,3.4,0.7c1.2-0.2,2.4-0.6,3.5-1.2c1.1-0.6,2.2-1.5,3.2-2.5s1.8-2.1,2.4-3.3v-0.1l0.1-0.1
		c0.2-0.4,0.4-0.7,0.5-1.1c0.1-0.4,0.2-0.7,0.3-1c0.4,0,0.8-0.1,1.1-0.2c0.3-0.1,0.6-0.2,0.8-0.3c-0.2,0.1-0.4,0.4-0.8,0.7
		c-0.4,0.4-0.7,0.8-1,1.3s-0.6,1.1-0.8,1.7s-0.2,1.3-0.1,2c0.2,0.7,0.5,1.2,1,1.6s1.1,0.7,1.8,0.8c0.7,0.1,1.4,0.1,2.2,0
		c0.8-0.2,1.5-0.4,2.2-0.9c0.5-0.3,0.9-0.7,1.4-1.3c0.5-0.6,1-1.2,1.5-2c0.5-0.7,1-1.6,1.5-2.5s0.9-1.8,1.4-2.7
		c0.4,0.1,0.8,0.1,1.2,0c0.4-0.1,0.7-0.1,0.9-0.2c-0.2,0.1-0.4,0.4-0.8,0.9c-0.4,0.4-0.8,1-1.2,1.6c-0.4,0.6-0.7,1.3-0.9,2
		c-0.3,0.7-0.3,1.4-0.1,2.1s0.5,1.2,1,1.6s1.1,0.7,1.8,0.8c0.7,0.1,1.4,0.1,2.2,0c0.8-0.2,1.5-0.4,2.2-0.9c0.5-0.4,1.1-0.8,1.5-1.2
		c0.1,0.1,0.1,0.3,0.2,0.4c0.3,0.5,0.7,0.9,1.3,1.2c0.6,0.3,1.3,0.4,2.1,0.4c0.9-0.1,1.8-0.3,2.6-0.6c0.8-0.4,1.6-0.9,2.3-1.4
		c0.5-0.4,1-0.9,1.5-1.5c0.2,0.5,0.4,1,0.6,1.5c0.4,0.7,1.1,1.3,1.9,1.7c1,0.5,2.1,0.6,3.2,0.4c1.2-0.2,2.4-0.6,3.5-1.2
		c0.8-0.4,1.5-0.9,2.2-1.5c0.1,0.4,0.2,0.7,0.4,0.9c0.3,0.4,0.5,0.7,0.9,0.8c0.3,0.2,0.6,0.2,0.9,0.1c0.3-0.1,0.5-0.3,0.6-0.6
		c0,0,0.1-0.2,0.3-0.6c0.1-0.4,0.3-0.8,0.6-1.4c0.3-0.6,0.5-1.2,0.8-2c0.3-0.8,0.6-1.6,1-2.4c0.4-0.1,0.8-0.2,1.3-0.2
		c0.4,0,0.7,0.1,0.8,0.4c0.1,0.2,0.1,0.5,0,0.8c-0.1,0.3-0.2,0.7-0.3,1.1s-0.2,0.8-0.3,1.3c-0.1,0.4-0.1,0.8,0,1.2
		c0.2,0.7,0.6,1.3,1.3,1.6c0.7,0.4,1.5,0.4,2.4,0.3c0.6-0.1,1.2-0.4,1.8-0.8c0.6-0.4,1.3-0.9,1.9-1.5c0.6-0.6,1.2-1.2,1.7-1.9
		c0.5-0.7,1-1.3,1.3-2C605.1-89.3,605.3-89.8,605.3-90.2z M534.4-89.3c0.6-0.6,1.2-0.9,1.9-0.9c0.5,0,0.9,0.1,1.1,0.5
		c0.2,0.4,0.2,0.7,0,1.1c-0.2,0.4-0.5,0.7-0.9,1s-0.7,0.4-1.2,0.6c-0.4,0.1-0.8,0.2-1.3,0.1c-0.4,0-0.8-0.1-1.1-0.3
		C533.4-88,533.8-88.7,534.4-89.3z"/>
</g>
<g id="p">
	<path id="p_1_" d="M499.8-86.1c0.3-0.2,0.7-0.3,1.1-0.2c0.4,0.1,0.7,0.2,1.1,0.5c0.3,0.3,0.5,0.5,0.6,0.9s0.1,0.7-0.2,1.1
		c-0.1,0.2-0.3,0.4-0.6,0.6s-0.5,0.4-0.8,0.6s-0.6,0.4-0.9,0.6s-0.5,0.4-0.7,0.5c-0.4,0.4-0.7,0.8-1.1,1.2c-0.3,0.4-0.7,0.8-1,1.3
		c1.1-0.2,2.2-0.5,3.3-0.8c1.1-0.4,2.2-0.8,3.2-1.4c1-0.5,2-1.1,3-1.7s1.9-1.3,2.7-1.9c0.6-0.4,1.3-1,2-1.7c0.8-0.7,1.6-1.5,2.3-2.3
		s1.5-1.7,2.1-2.7c0.6-1,1.2-1.9,1.5-2.9c0.3-1,0.5-2,0.4-2.9s-0.5-1.9-1.1-2.7c-0.5-0.7-1.3-1.3-2.3-1.6c-1-0.3-2.1-0.5-3.2-0.5
		c-1.1-0.1-2.2,0-3.3,0.2c-1.1,0.1-2,0.3-2.7,0.4c-3.2,0.5-6.3,1.2-9.4,2.3c-3.1,1-6.1,2.3-8.9,3.8c-0.9,0.5-2,1.1-3.2,1.8
		c-1.2,0.7-2.4,1.5-3.6,2.4c-1.2,0.9-2.1,1.8-3,2.9c-0.9,1.1-1.3,2.2-1.4,3.4c-0.1,1.5,0.6,2.4,2.2,2.7c1.4,0.3,2.9,0.2,4.5-0.1
		c1.6-0.3,3.2-0.8,4.8-1.5c1.6-0.7,3.1-1.5,4.5-2.4c1.4-0.9,2.6-1.9,3.5-2.9c0.2-0.2,0.4-0.4,0.6-0.7c0.2-0.3,0.5-0.6,0.7-0.8
		c0.3-0.2,0.5-0.3,0.8-0.3s0.6,0.2,0.9,0.6s0.4,0.7,0.5,1.1s0,0.7-0.1,1.1s-0.3,0.7-0.5,1s-0.5,0.6-0.7,0.9
		c-0.7,0.7-1.6,1.5-2.7,2.3s-2.3,1.5-3.5,2.2c-1.3,0.7-2.6,1.3-4,1.8s-2.8,0.9-4.2,1.2c-1.4,0.3-2.7,0.3-4,0.2
		c-1.3-0.1-2.4-0.5-3.5-1.1c-1.3-0.7-2.1-1.6-2.3-2.7c-0.3-1.1-0.2-2.2,0.1-3.4c0.4-1.2,0.9-2.3,1.7-3.4c0.8-1.1,1.5-2,2.3-2.6
		c1.5-1.4,3.1-2.6,4.9-3.7c1.7-1.1,3.5-2.1,5.4-3s3.8-1.7,5.7-2.4c2-0.7,3.9-1.3,5.8-1.8c0.9-0.3,2-0.5,3.2-0.8s2.5-0.5,3.9-0.7
		s2.7-0.3,4.1-0.4c1.4,0,2.7,0.1,3.9,0.4c1.2,0.3,2.3,0.7,3.3,1.4c1,0.6,1.7,1.6,2.3,2.7c0.7,1.5,1,3,0.8,4.4
		c-0.2,1.5-0.6,3-1.2,4.4c-0.7,1.4-1.5,2.7-2.5,4s-2,2.4-3,3.3c-1.2,1.1-2.5,2.2-3.9,3.3c-1.4,1.1-3,2-4.6,2.9
		c-1.6,0.8-3.3,1.5-5,2.1c-1.7,0.5-3.5,0.8-5.2,0.7c-0.3,0.7-0.6,1.4-0.8,2.1c-0.2,0.7-0.4,1.4-0.5,2.1c-0.1,0.6-0.3,1-0.6,1.3
		s-0.5,0.4-0.8,0.3c-0.3-0.1-0.5-0.2-0.8-0.6c-0.3-0.3-0.5-0.8-0.6-1.3c-0.1-0.3-0.1-0.7-0.1-1c0-0.4,0.1-0.7,0.2-1.1
		c0.1-0.4,0.3-0.7,0.4-1.1c0.2-0.4,0.3-0.7,0.5-1c-0.1,0-0.1,0-0.1,0h-0.1c-0.4-0.1-0.8-0.3-1.2-0.7c-0.4-0.4-0.6-0.7-0.7-1.2
		c-0.1-0.5-0.1-0.8,0.1-1.2s0.6-0.6,1.2-0.7c0.3-0.1,0.7,0,1.1,0.1s0.8,0.2,1.3,0.4c0.8-1.4,1.6-2.7,2.6-4
		C497.3-84.2,498.4-85.3,499.8-86.1z"/>
</g>
</svg>
