<?xml version="1.0" encoding="utf-8"?>
<!-- Generator: Adobe Illustrator 18.1.1, SVG Export Plug-In . SVG Version: 6.00 Build 0)  -->
<svg version="1.1" id="EiffelTower" xmlns="http://www.w3.org/2000/svg" xmlns:xlink="http://www.w3.org/1999/xlink" x="0px"
	 y="0px" viewBox="212.2 0 205.6 110" enable-background="new 212.2 0 205.6 110" xml:space="preserve">
<g id="base">
	<path fill="#343434" d="M417,110H213c-0.5,0-0.9-0.3-0.9-0.9s0.3-0.9,0.9-0.9H417c0.5,0,0.9,0.3,0.9,0.9S417.5,110,417,110z"/>
	<path fill="#343434" d="M212.2,109.1h205.6H212.2z"/>
</g>
<g id="bottom">
	<path fill="#343434" d="M288.7,109.6c-0.2-0.3-0.2-0.6,0-0.9l13.2-23.5c0.2-0.3,0.4-0.4,0.8-0.4h25.1c0.3,0,0.6,0.2,0.8,0.4
		l13.1,23.3c0.1,0.2,0.2,0.8,0.2,0.9L288.7,109.6L288.7,109.6z M290.9,108.3h48.6l-12.3-21.7h-24.1L290.9,108.3z"/>
	<path fill="#343434" d="M297.3,109.6c-0.2-0.3-0.2-0.6-0.1-0.9l11.2-23.5h13.6l11.1,23.3c0.1,0.2,0.2,0.8,0.2,0.9L297.3,109.6
		L297.3,109.6z M299.3,108.3h31.6l-10.3-21.7h-10.9L299.3,108.3z"/>
	<path fill="#343434" d="M300.7,103.7h-7.6c-0.4,0-0.8-0.3-0.8-0.9c0-0.5,0.3-0.9,0.8-0.9h7.6c0.4,0,0.8,0.3,0.8,0.9
		C301.5,103.4,301.1,103.7,300.7,103.7z"/>
	<path fill="#343434" d="M337,103.7h-7.4c-0.4,0-0.8-0.3-0.8-0.9c0-0.5,0.3-0.9,0.8-0.9h7.4c0.4,0,0.8,0.3,0.8,0.9
		C337.8,103.4,337.5,103.7,337,103.7z"/>
	<path fill="#343434" d="M303.7,98h-7.2c-0.4,0-0.9-0.3-0.9-0.9s0.3-0.9,0.9-0.9h7.2c0.4,0,0.9,0.3,0.9,0.9S304.2,98,303.7,98z"/>
	<path fill="#343434" d="M333.8,98h-7.1c-0.4,0-0.9-0.3-0.9-0.9s0.3-0.9,0.9-0.9h7.1c0.4,0,0.9,0.3,0.9,0.9S334.2,98,333.8,98z"/>
	<path fill="#343434" d="M302.6,100.3c-0.1,0-0.3,0-0.3-0.1c-0.4-0.2-0.6-0.7-0.4-1.1c0.2-0.3,4.3-8.5,13.3-8.5
		c9.4,0,13.1,8.2,13.3,8.6c0.2,0.4,0,0.9-0.4,1.1c-0.4,0.2-0.9,0-1.1-0.4c-0.2-0.3-3.5-7.6-11.8-7.6c-8,0-11.8,7.5-11.8,7.6
		C303.3,100.1,302.9,100.3,302.6,100.3z"/>
	<path fill="#343434" d="M330.9,92.2h-31.3c-0.5,0-0.9-0.3-0.9-0.9c0-0.5,0.3-0.9,0.9-0.9h31.3c0.5,0,0.9,0.3,0.9,0.9
		C331.8,91.9,331.4,92.2,330.9,92.2z"/>
	<path fill="#343434" d="M328.8,86.5h-27.2c-0.5,0-0.9-0.3-0.9-0.9v-5.2c0-0.5,0.3-0.9,0.9-0.9h27.2c0.5,0,0.9,0.3,0.9,0.9v5.2
		C329.7,86.2,329.2,86.5,328.8,86.5z M302.4,84.8h25.5v-3.4h-25.5V84.8z"/>
	<path fill="#343434" d="M328.8,84h-27.2c-0.5,0-0.9-0.3-0.9-0.9c0-0.5,0.3-0.9,0.9-0.9h27.2c0.5,0,0.9,0.3,0.9,0.9
		S329.2,84,328.8,84z"/>
</g>
<g id="middle">
	<path fill="#343434" d="M326,81.3L326,81.3h-21.6c-0.3,0-0.5-0.1-0.7-0.3c-0.2-0.3-0.2-0.5-0.2-0.8l5.2-17.7
		c0.1-0.3,0.4-0.6,0.9-0.6h11.3c0.3,0,0.7,0.3,0.9,0.6l5.1,17.5c0.1,0.1,0.1,0.3,0.1,0.4C326.8,81,326.5,81.3,326,81.3z M305.5,79.6
		h19.2l-4.6-16h-10L305.5,79.6z"/>
	<path fill="#343434" d="M319.9,81.3h-9.5c-0.3,0-0.5-0.1-0.7-0.3c-0.2-0.2-0.3-0.4-0.2-0.7l1.9-12.9c0.1-0.4,0.5-0.8,0.9-0.7
		s0.8,0.5,0.7,0.9l-1.8,11.9h7.5l-1.8-11.9c-0.1-0.4,0.3-0.9,0.7-0.9c0.4-0.1,0.9,0.3,0.9,0.7l1.9,12.9c0,0.3,0,0.5-0.2,0.7
		C320.4,81.2,320.1,81.3,319.9,81.3z"/>
	<path fill="#343434" d="M310.9,76.9H306c-0.5,0-0.9-0.3-0.9-0.9s0.3-0.9,0.9-0.9h4.9c0.5,0,0.9,0.3,0.9,0.9S311.3,76.9,310.9,76.9z
		"/>
	<path fill="#343434" d="M324.5,76.9h-5.1c-0.5,0-0.9-0.3-0.9-0.9s0.3-0.9,0.9-0.9h5.1c0.5,0,0.9,0.3,0.9,0.9S324.9,76.9,324.5,76.9
		z"/>
	<path fill="#343434" d="M311.4,72.7h-4.3c-0.5,0-0.9-0.3-0.9-0.9s0.3-0.9,0.9-0.9h4.3c0.5,0,0.9,0.3,0.9,0.9
		C312.3,72.3,311.9,72.7,311.4,72.7z"/>
	<path fill="#343434" d="M323.2,72.7h-4.4c-0.4,0-0.9-0.3-0.9-0.9s0.3-0.9,0.9-0.9h4.4c0.4,0,0.9,0.3,0.9,0.9
		C324.1,72.3,323.7,72.7,323.2,72.7z"/>
	<path fill="#343434" d="M321.9,68.4h-13.5c-0.4,0-0.9-0.3-0.9-0.9s0.3-0.9,0.9-0.9h13.5c0.4,0,0.9,0.3,0.9,0.9
		S322.3,68.4,321.9,68.4z"/>
	<path fill="#343434" d="M322,63.6h-13.8c-0.5,0-0.9-0.3-0.9-0.9v-2.6c0-0.5,0.3-0.9,0.9-0.9H322c0.5,0,0.9,0.3,0.9,0.9v2.6
		C322.9,63.2,322.5,63.6,322,63.6z M309.1,61.9h12V61h-12V61.9z"/>
</g>
<g id="top">
	<path fill="#343434" d="M320.5,61L320.5,61h-10.7c-0.3,0-0.4-0.1-0.6-0.3c-0.2-0.2-0.3-0.4-0.3-0.7l3.4-42.1c0-0.4,0.4-0.8,0.9-0.8
		h4c0.4,0,0.9,0.3,0.9,0.8l3.4,41.9c0,0.1,0,0.2,0,0.3C321.4,60.7,321.1,61,320.5,61z M310.8,59.3h8.8l-3.3-40.4H314L310.8,59.3z"/>
	<path fill="#343434" d="M317.1,61L317.1,61h-3.7c-0.3,0-0.4-0.1-0.6-0.3c-0.2-0.2-0.3-0.4-0.3-0.6l1.4-42.1c0-0.4,0.4-0.9,0.9-0.9
		h0.8c0.4,0,0.9,0.3,0.9,0.9L318,60c0,0.1,0,0.2,0,0.2C318,60.7,317.6,61,317.1,61z M314.3,59.3h2l-1-27.7L314.3,59.3z"/>
	<path fill="#343434" d="M313.2,57.3h-2.9c-0.4,0-0.9-0.3-0.9-0.9c0-0.5,0.3-0.9,0.9-0.9h2.9c0.4,0,0.9,0.3,0.9,0.9
		C314.1,56.9,313.8,57.3,313.2,57.3z"/>
	<path fill="#343434" d="M320.1,57.3H317c-0.5,0-0.9-0.3-0.9-0.9c0-0.5,0.3-0.9,0.9-0.9h3.1c0.5,0,0.9,0.3,0.9,0.9
		C321,56.9,320.6,57.3,320.1,57.3z"/>
	<path fill="#343434" d="M313.3,53.7h-2.7c-0.4,0-0.9-0.3-0.9-0.9s0.3-0.9,0.9-0.9h2.7c0.4,0,0.9,0.3,0.9,0.9
		C314.1,53.3,313.8,53.7,313.3,53.7z"/>
	<path fill="#343434" d="M319.8,53.7H317c-0.4,0-0.9-0.3-0.9-0.9s0.3-0.9,0.9-0.9h2.8c0.4,0,0.9,0.3,0.9,0.9
		C320.6,53.3,320.2,53.7,319.8,53.7z"/>
	<path fill="#343434" d="M313.7,50.1h-2.8c-0.4,0-0.9-0.3-0.9-0.9c0-0.5,0.3-0.9,0.9-0.9h2.8c0.4,0,0.9,0.3,0.9,0.9
		C314.5,49.8,314.1,50.1,313.7,50.1z"/>
	<path fill="#343434" d="M319.5,50.1h-2.8c-0.4,0-0.8-0.3-0.8-0.9c0-0.5,0.3-0.9,0.8-0.9h2.8c0.4,0,0.8,0.3,0.8,0.9
		C320.3,49.8,319.9,50.1,319.5,50.1z"/>
	<path fill="#343434" d="M313.8,46.5h-2.6c-0.4,0-0.9-0.3-0.9-0.9c0-0.5,0.3-0.9,0.9-0.9h2.6c0.4,0,0.9,0.3,0.9,0.9
		S314.2,46.5,313.8,46.5z"/>
	<path fill="#343434" d="M319.3,46.5h-2.5c-0.4,0-0.8-0.3-0.8-0.9c0-0.5,0.3-0.9,0.8-0.9h2.5c0.4,0,0.8,0.3,0.8,0.9
		S319.7,46.5,319.3,46.5z"/>
	<path fill="#343434" d="M313.8,43h-2.4c-0.4,0-0.8-0.3-0.8-0.9s0.3-0.9,0.8-0.9h2.4c0.4,0,0.8,0.3,0.8,0.9
		C314.6,42.5,314.3,43,313.8,43z"/>
	<path fill="#343434" d="M319,43h-2.5c-0.4,0-0.8-0.3-0.8-0.9s0.3-0.9,0.8-0.9h2.5c0.4,0,0.8,0.3,0.8,0.9
		C319.8,42.5,319.4,43,319,43z"/>
	<path fill="#343434" d="M313.8,39.4h-2c-0.5,0-0.9-0.3-0.9-0.9c0-0.5,0.3-0.9,0.9-0.9h2c0.5,0,0.9,0.3,0.9,0.9
		S314.4,39.4,313.8,39.4z"/>
	<path fill="#343434" d="M318.5,39.4h-2.1c-0.5,0-0.9-0.3-0.9-0.9c0-0.5,0.3-0.9,0.9-0.9h2.1c0.5,0,0.9,0.3,0.9,0.9
		S318.9,39.4,318.5,39.4z"/>
	<path fill="#343434" d="M317.3,18.9H313c-0.5,0-0.9-0.3-0.9-0.9v-3.4c0-0.5,0.3-0.9,0.9-0.9h4.3c0.5,0,0.9,0.3,0.9,0.9V18
		C318.1,18.6,317.8,18.9,317.3,18.9z M313.8,17.2h2.6v-1.6h-2.6V17.2z"/>
	<path fill="#343434" d="M316.8,15.6h-3.5c-0.5,0-0.9-0.3-0.9-0.9v-2.5c0-0.5,0.3-0.9,0.9-0.9h3.5c0.5,0,0.9,0.3,0.9,0.9v2.5
		C317.7,15.1,317.4,15.6,316.8,15.6z M314.2,13.8h1.8v-0.8h-1.8V13.8z"/>
	<path fill="#343434" d="M315.1,13.1c-0.5,0-0.9-0.3-0.9-0.9V0.9c0-0.5,0.3-0.9,0.9-0.9s0.9,0.3,0.9,0.9v11.3
		C316,12.7,315.6,13.1,315.1,13.1z"/>
</g>
<g id="smallcloud">
	<path fill="#343434" d="M346.6,76.4h-7c-1.7,0-3.2-1.5-3.2-3.2s1.5-3.2,3.2-3.2c0.7,0,1.4,0.3,1.9,0.7c0.3,0.3,0.4,0.9,0.2,1.2
		c-0.3,0.3-0.9,0.4-1.2,0.2c-0.3-0.2-0.5-0.3-0.9-0.3c-0.8,0-1.5,0.7-1.5,1.5c0,0.8,0.7,1.5,1.5,1.5h7c1,0,1.8-0.8,1.8-1.8
		c0-1-0.8-1.8-1.8-1.8c-0.4,0-0.8,0.2-1.1,0.4c-0.3,0.3-0.9,0.3-1.2-0.2c-0.3-0.3-0.3-0.9,0.2-1.2c0.6-0.5,1.4-0.8,2.2-0.8
		c2,0,3.5,1.5,3.5,3.5C350.1,74.9,348.6,76.4,346.6,76.4z"/>
	<path fill="#343434" d="M339.5,76.4c-1.7,0-3.2-1.5-3.2-3.2s1.5-3.2,3.2-3.2c0.5,0,0.9,0.3,0.9,0.9s-0.3,0.9-0.9,0.9
		c-0.8,0-1.5,0.7-1.5,1.5s0.7,1.5,1.5,1.5c0.5,0,0.9,0.3,0.9,0.9S340.1,76.4,339.5,76.4z"/>
	<path fill="#343434" d="M340.1,71.9L340.1,71.9c-0.5,0-0.9-0.4-0.9-0.9c0.1-2.3,2-4.2,4.3-4.2c2,0,3.7,1.4,4.2,3.3
		c0.1,0.4-0.2,0.9-0.6,1c-0.4,0.1-0.9-0.2-1-0.6c-0.3-1.2-1.3-2-2.5-2c-1.4,0-2.6,1.1-2.6,2.6C341,71.5,340.7,71.9,340.1,71.9z"/>
</g>
<g id="mediumcloud">
	<path fill="#343434" d="M294.3,49.2h-8.7c-2.3,0-4.1-1.9-4.1-4.1c0-2.3,1.9-4.1,4.1-4.1c0.9,0,1.9,0.3,2.6,0.9
		c0.3,0.3,0.4,0.9,0.2,1.2c-0.3,0.3-0.9,0.4-1.2,0.2c-0.4-0.3-0.9-0.5-1.5-0.5c-1.4,0-2.4,1.1-2.4,2.4c0,1.4,1.1,2.4,2.4,2.4h8.7
		c1.1,0,2-0.9,2-2s-0.9-2-2-2c-0.4,0-0.9,0.2-1.2,0.4s-0.9,0.3-1.2-0.2c-0.3-0.3-0.3-0.9,0.2-1.2c0.7-0.5,1.5-0.8,2.2-0.8
		c2.1,0,3.7,1.6,3.7,3.7C298.1,47.4,296.4,49.2,294.3,49.2z"/>
	<path fill="#343434" d="M294.3,49.2c-0.5,0-0.9-0.3-0.9-0.9c0-0.5,0.3-0.9,0.9-0.9c1.1,0,2-0.9,2-2c0-1.1-0.9-2-2-2
		c-0.5,0-0.9-0.3-0.9-0.9c0-0.5,0.3-0.9,0.9-0.9c2.1,0,3.7,1.6,3.7,3.7C298.1,47.4,296.4,49.2,294.3,49.2z"/>
	<path fill="#343434" d="M293.6,43.5c-0.4,0-0.9-0.3-0.9-0.9c0-1.9-1.5-3.4-3.4-3.4c-1.5,0-2.9,1-3.4,2.6c-0.1,0.4-0.6,0.8-1,0.6
		c-0.4-0.1-0.8-0.6-0.6-1c0.6-2.3,2.6-3.9,5-3.9c2.8,0,5.1,2.2,5.2,5.1C294.4,43.1,294.1,43.5,293.6,43.5L293.6,43.5z"/>
</g>
<g id="bigcloud">
	<path fill="#343434" stroke="#343434" stroke-miterlimit="10" d="M348.2,27c-0.1,0-0.1,0-0.2,0c-0.1,0-0.2,0.1-0.3,0.1c0,0,0,0,0,0
		c0,0,0,0,0,0c0,0-0.1,0-0.1,0c-0.6,0.1-1.2,0.4-1.7,1c-0.3,0.3-0.9,0.4-1.2,0.1s-0.4-0.9-0.1-1.2c0.6-0.7,1.4-1.1,2.2-1.4
		c-0.3-1.9-1.8-3.3-3.8-3.3c-1.2,0-2.4,0.6-3.1,1.6c0,0.1-0.1,0.2-0.2,0.3c0,0-0.1,0-0.1,0.1c-0.2,0.3-0.4,0.7-0.4,1.1
		c-0.1,0.4-0.5,0.8-1,0.7c-0.4-0.1-0.8-0.5-0.7-1c0.1-0.4,0.2-0.8,0.4-1.2c-0.3-0.1-0.6-0.3-1.1-0.3c-1.4,0-2.6,1.1-2.6,2.6
		c0,0.2,0,0.4,0.1,0.6c0.5,0.2,1,0.5,1.5,0.9c0.3,0.3,0.3,0.9,0,1.2s-0.9,0.3-1.2,0c-0.3-0.2-0.6-0.4-0.9-0.5c0,0,0,0-0.1,0
		c-0.2,0-0.4,0-0.5-0.1c-0.1,0-0.2,0-0.3,0c-1.4,0-2.6,1.1-2.6,2.6c0,1.4,1.1,2.6,2.6,2.6h15.4c1.7,0,3.1-1.4,3.1-3.1
		S349.9,27,348.2,27z"/>
	<path fill="#343434" d="M348.5,25.3c-0.3-2.8-2.7-4.9-5.5-4.9c-1.6,0-3.1,0.7-4.2,1.9c-0.6-0.4-1.3-0.5-2-0.5c-2.4,0-4.3,2-4.3,4.3
		c0,0.1,0,0.3,0,0.4c-2.2,0.2-4,2-4,4.3c0,2.4,2,4.3,4.3,4.3h15.4c2.7,0,4.8-2.1,4.8-4.9C353,27.5,351,25.5,348.5,25.3z M348.2,33.2
		h-15.4c-1.5,0-2.6-1.2-2.6-2.6c0-1.5,1.2-2.6,2.6-2.6c0.1,0,0.2,0,0.3,0c0.1,0.1,0.3,0.1,0.5,0.1c0,0,0,0,0.1,0
		c0.3,0.1,0.6,0.3,0.9,0.5c0.3,0.3,0.9,0.3,1.2,0s0.3-0.9,0-1.2c-0.4-0.4-0.9-0.7-1.5-0.9c0-0.2-0.1-0.4-0.1-0.6
		c0-1.5,1.2-2.6,2.6-2.6c0.5,0,0.8,0.1,1.1,0.3c-0.2,0.4-0.3,0.8-0.4,1.2c-0.1,0.5,0.3,0.9,0.7,1c0.5,0.1,0.9-0.3,1-0.7
		c0.1-0.4,0.2-0.8,0.4-1.1c0,0,0.1,0,0.1-0.1c0.1-0.1,0.2-0.2,0.2-0.3c0.7-0.9,1.9-1.6,3.1-1.6c2,0,3.6,1.4,3.8,3.3
		c-0.8,0.3-1.6,0.7-2.2,1.4c-0.3,0.3-0.3,0.9,0.1,1.2s0.9,0.3,1.2-0.1c0.5-0.5,1.1-0.8,1.7-1c0,0,0.1,0,0.1,0c0.1,0,0.2,0,0.3-0.1
		c0.1,0,0.1,0,0.2,0c1.7,0,3.1,1.4,3.1,3.1S349.9,33.2,348.2,33.2z"/>
</g>
</svg>
